<svg xmlns="http://www.w3.org/2000/svg" xmlns:xlink="http://www.w3.org/1999/xlink" version="1.1" x="0px" y="0px" viewBox="0 0 80 100" style="enable-background:new 0 0 80 80;" xml:space="preserve"><path d="M65.8399658,73.0012207c0.5500488,0,1-0.4500122,1-1v-34.25H72c0.4199829,0,0.789978-0.2600098,0.9299927-0.6400146  c0.1500244-0.3900146,0.0499878-0.8300171-0.2600098-1.0999756l-32-28.75c-0.3800049-0.3500366-0.960022-0.3500366-1.3399658,0  l-32,28.75c-0.3100586,0.2699585-0.4100342,0.7099609-0.2600098,1.0999756C7.2199707,37.4912109,7.5899658,37.7512207,8,37.7512207  h5.1599731v34.25c0,0.5499878,0.4500122,1,1,1h19.0400391V61.3112183c0-1.8800049,0.7599487-3.5800171,1.9899902-4.8099976  c1.2399902-1.2300415,2.9400024-1.9899902,4.8200073-1.9899902c3.75,0,6.7999878,3.0499878,6.7999878,6.7999878v11.6900024  H65.8399658z"/><text x="0" y="95" fill="#000000" font-size="5px" font-weight="bold" font-family="'Helvetica Neue', Helvetica, Arial-Unicode, Arial, Sans-serif">Created by Vectorstall</text><text x="0" y="100" fill="#000000" font-size="5px" font-weight="bold" font-family="'Helvetica Neue', Helvetica, Arial-Unicode, Arial, Sans-serif">from the Noun Project</text></svg>